<svg width="140" height="124" viewBox="0 0 140 124" fill="none" xmlns="http://www.w3.org/2000/svg">
<path d="M126.833 25.5452C139.793 42.9462 144.835 69.6385 134.363 89.7534C123.924 109.868 98.0042 123.406 71.0176 123.981C44.0635 124.555 16.0751 112.231 5.34509 91.9565C-5.38487 71.6819 1.14359 43.4571 15.1378 25.5133C29.132 7.53755 50.5919 -0.157211 71.761 0.00243103C92.9624 0.162073 113.841 8.17612 126.833 25.5452Z" fill="white"/>
<path d="M42.9151 66.358C48.7447 66.358 52.7077 62.5611 52.695 57.2685C52.7077 52.2571 49.2049 48.652 44.4876 48.652C42.1864 48.652 40.2049 49.6108 39.2844 50.902H39.131L39.8086 44.3438H51.2504V39.8182H35.2447L34.0046 53.625L38.9265 54.5071C39.7319 53.4205 41.2915 52.7429 42.8384 52.7429C45.4719 52.7557 47.364 54.6605 47.364 57.4091C47.364 60.1321 45.5103 62.0114 42.9151 62.0114C40.7163 62.0114 38.9393 60.6307 38.8114 58.598H33.4421C33.5444 63.1236 37.4947 66.358 42.9151 66.358ZM56.1594 61.3977H68.7262V66H74.0188V61.3977H77.266V56.9616H74.0188V39.8182H67.0898L56.1594 57.0384V61.3977ZM68.8285 56.9616H61.7333V56.7571L68.6239 45.8523H68.8285V56.9616ZM95.2852 61.0909C95.2979 64.2358 97.305 66.9077 101.051 66.9077C104.758 66.9077 106.829 64.2358 106.816 61.0909V59.7102C106.829 56.5398 104.809 53.8935 101.051 53.8935C97.3562 53.8935 95.2979 56.5653 95.2852 59.7102V61.0909ZM81.8491 46.108C81.8619 49.2528 83.869 51.8991 87.6019 51.8991C91.3221 51.8991 93.3931 49.2784 93.3803 46.108V44.7273C93.3931 41.5568 91.3732 38.9105 87.6019 38.9105C83.9457 38.9105 81.8619 41.5568 81.8491 44.7273V46.108ZM83.1019 66H86.4386L104.439 39.8182H101.102L83.1019 66ZM99.0053 59.7102C99.0181 58.4574 99.5167 57.1662 101.051 57.1662C102.662 57.1662 103.083 58.4574 103.071 59.7102V61.0909C103.083 62.3438 102.61 63.6094 101.051 63.6094C99.4911 63.6094 99.0181 62.3054 99.0053 61.0909V59.7102ZM85.5948 44.7273C85.6076 43.5128 86.0806 42.1832 87.6019 42.1832C89.2127 42.1832 89.6474 43.4744 89.6346 44.7273V46.108C89.6474 47.3608 89.1616 48.6264 87.6019 48.6264C86.0934 48.6264 85.6076 47.3608 85.5948 46.108V44.7273Z" fill="#F05C52"/>
<path d="M43.7463 88C46.8486 88 48.6433 86.076 48.6433 82.8942C48.6433 79.7273 46.8486 77.8182 43.8507 77.8182H40.4501V88H43.7463ZM41.9864 86.6577V79.1605H43.7562C45.9835 79.1605 47.132 80.4929 47.132 82.8942C47.132 85.3054 45.9835 86.6577 43.6618 86.6577H41.9864ZM50.7143 88H52.2008V80.3636H50.7143V88ZM51.465 79.1854C51.9771 79.1854 52.4047 78.7876 52.4047 78.3004C52.4047 77.8132 51.9771 77.4105 51.465 77.4105C50.948 77.4105 50.5254 77.8132 50.5254 78.3004C50.5254 78.7876 50.948 79.1854 51.465 79.1854ZM60.203 82.228C59.8947 81.0398 58.965 80.2642 57.3145 80.2642C55.5893 80.2642 54.3663 81.174 54.3663 82.5263C54.3663 83.6101 55.0226 84.331 56.4544 84.6491L57.747 84.9325C58.4828 85.0966 58.8258 85.4247 58.8258 85.902C58.8258 86.4936 58.1944 86.956 57.22 86.956C56.3301 86.956 55.7584 86.5732 55.5794 85.8224L54.1426 86.0412C54.3912 87.3935 55.5147 88.1541 57.2299 88.1541C59.0744 88.1541 60.3521 87.1747 60.3521 85.7926C60.3521 84.7138 59.666 84.0476 58.264 83.7244L57.051 83.446C56.2108 83.2472 55.8478 82.9638 55.8528 82.4467C55.8478 81.8601 56.4842 81.4425 57.3294 81.4425C58.2541 81.4425 58.6817 81.9545 58.8557 82.4666L60.203 82.228ZM65.4831 88.1541C67.2878 88.1541 68.4561 87.0703 68.6202 85.5838H67.1735C66.9846 86.4091 66.3432 86.8963 65.4931 86.8963C64.2353 86.8963 63.4249 85.8473 63.4249 84.1818C63.4249 82.5462 64.2502 81.517 65.4931 81.517C66.4377 81.517 67.0144 82.1136 67.1735 82.8295H68.6202C68.4611 81.2884 67.2033 80.2642 65.4682 80.2642C63.3155 80.2642 61.9235 81.8849 61.9235 84.2166C61.9235 86.5185 63.2658 88.1541 65.4831 88.1541ZM73.7065 88.1541C75.8592 88.1541 77.2662 86.5781 77.2662 84.2166C77.2662 81.8402 75.8592 80.2642 73.7065 80.2642C71.5538 80.2642 70.1468 81.8402 70.1468 84.2166C70.1468 86.5781 71.5538 88.1541 73.7065 88.1541ZM73.7115 86.9062C72.3045 86.9062 71.6483 85.6783 71.6483 84.2116C71.6483 82.75 72.3045 81.5071 73.7115 81.5071C75.1085 81.5071 75.7647 82.75 75.7647 84.2116C75.7647 85.6783 75.1085 86.9062 73.7115 86.9062ZM84.0428 84.8331C84.0478 86.1307 83.0833 86.7472 82.248 86.7472C81.3283 86.7472 80.6919 86.081 80.6919 85.0419V80.3636H79.2054V85.2209C79.2054 87.1151 80.2445 88.0994 81.7111 88.0994C82.8595 88.0994 83.6401 87.4929 83.9931 86.6776H84.0726V88H85.5343V80.3636H84.0428V84.8331ZM89.2981 83.4659C89.2981 82.2479 90.0438 81.5518 91.0779 81.5518C92.0872 81.5518 92.6987 82.2131 92.6987 83.3217V88H94.1852V83.1428C94.1852 81.2536 93.1461 80.2642 91.585 80.2642C90.4366 80.2642 89.6859 80.7962 89.3329 81.6065H89.2384V80.3636H87.8116V88H89.2981V83.4659ZM100.023 80.3636H98.4574V78.5341H96.9709V80.3636H95.8522V81.5568H96.9709V86.0661C96.9659 87.4531 98.0248 88.1243 99.1981 88.0994C99.6704 88.0945 99.9886 88.005 100.163 87.9403L99.8942 86.7124C99.7947 86.7322 99.6108 86.777 99.3721 86.777C98.8899 86.777 98.4574 86.6179 98.4574 85.7578V81.5568H100.023V80.3636Z" fill="#272343"/>
</svg>
