<svg width="219" height="46" viewBox="0 0 219 46" fill="none" xmlns="http://www.w3.org/2000/svg">
<g clip-path="url(#clip0_1_552)">
<path d="M44.1788 10.1498L23.293 0.0669785C23.1078 -0.0223262 22.8922 -0.0223262 22.7071 0.0669785L1.82125 10.1498C1.58837 10.2622 1.4404 10.498 1.4404 10.7566V35.2434C1.4404 35.502 1.58837 35.7378 1.82125 35.8502L22.707 45.933C22.7996 45.9777 22.8999 46 23 46C23.1002 46 23.2004 45.9777 23.293 45.933L44.1788 35.8502C44.4117 35.7378 44.5597 35.502 44.5597 35.2434V10.7567C44.5597 10.4979 44.4116 10.2623 44.1788 10.1498ZM23 1.42209L42.3359 10.7566L36.7308 13.4625C36.6954 13.4355 36.6579 13.4105 36.6167 13.3906L17.4122 4.11965L23 1.42209ZM15.8904 4.88153L35.1982 14.2025L31.2437 16.1115L11.9439 6.79439L15.8904 4.88153ZM35.6499 15.4808V22.5376L31.9562 24.3208V17.264L35.6499 15.4808ZM43.212 34.8206L23.6739 44.2526V21.2623L28.3343 19.0124C28.6694 18.8506 28.8099 18.4478 28.6481 18.1126C28.4863 17.7776 28.0836 17.6369 27.7484 17.7988L23 20.0912L21.1316 19.1891C20.7964 19.0272 20.3937 19.1679 20.2318 19.503C20.07 19.8381 20.2106 20.2409 20.5457 20.4028L22.3262 21.2623V44.2526L2.78806 34.8204V11.8301L17.6662 19.0127C17.7606 19.0583 17.8604 19.0799 17.9586 19.0799C18.2091 19.0799 18.4497 18.9396 18.5659 18.6989C18.7277 18.3637 18.5872 17.9609 18.2521 17.7991L3.66412 10.7566L10.3579 7.52509L30.5992 17.2968C30.6022 17.3009 30.6055 17.3046 30.6085 17.3086V25.3945C30.6085 25.6264 30.7278 25.8419 30.9242 25.9652C31.0332 26.0337 31.1577 26.0683 31.2825 26.0683C31.3824 26.0683 31.4825 26.0461 31.5753 26.0013L36.6167 23.5675C36.8496 23.4551 36.9976 23.2194 36.9976 22.9607V14.8303L43.212 11.8302V34.8206Z" fill="#272343"/>
<path d="M8.34876 32.207L5.28374 30.7274C4.94844 30.5654 4.54576 30.7061 4.38395 31.0412C4.22214 31.3764 4.36266 31.7792 4.69778 31.941L7.7628 33.4206C7.85722 33.4663 7.95704 33.4879 8.05524 33.4879C8.30572 33.4879 8.54633 33.3475 8.66249 33.1068C8.82439 32.7716 8.68388 32.3689 8.34876 32.207Z" fill="#272343"/>
<path d="M11.1696 30.371L5.28798 27.5315C4.95278 27.3697 4.55001 27.5102 4.3882 27.8454C4.22648 28.1806 4.367 28.5834 4.70211 28.7452L10.5837 31.5847C10.6782 31.6302 10.778 31.6519 10.8762 31.6519C11.1267 31.6519 11.3673 31.5115 11.4834 31.2708C11.6452 30.9355 11.5047 30.5327 11.1696 30.371Z" fill="#272343"/>
</g>
<path d="M67.6761 17C71.6648 17 73.9723 14.5263 73.9723 10.4354C73.9723 6.36364 71.6648 3.90909 67.8104 3.90909H63.4382V17H67.6761ZM65.4134 15.2741V5.63494H67.6889C70.5526 5.63494 72.0291 7.34801 72.0291 10.4354C72.0291 13.5355 70.5526 15.2741 67.5675 15.2741H65.4134ZM76.275 17H78.1863V7.18182H76.275V17ZM77.2402 5.6669C77.8986 5.6669 78.4483 5.15554 78.4483 4.52912C78.4483 3.9027 77.8986 3.38494 77.2402 3.38494C76.5755 3.38494 76.0321 3.9027 76.0321 4.52912C76.0321 5.15554 76.5755 5.6669 77.2402 5.6669ZM88.1147 9.57884C87.7184 8.05114 86.5231 7.05398 84.4009 7.05398C82.1829 7.05398 80.6104 8.22372 80.6104 9.96236C80.6104 11.3558 81.4542 12.2827 83.2951 12.6918L84.957 13.0561C85.9031 13.267 86.3441 13.6889 86.3441 14.3026C86.3441 15.0632 85.5323 15.6577 84.2795 15.6577C83.1353 15.6577 82.4002 15.1655 82.1701 14.2003L80.3228 14.4815C80.6424 16.2202 82.087 17.1982 84.2923 17.1982C86.6637 17.1982 88.3065 15.9389 88.3065 14.1619C88.3065 12.7749 87.4244 11.9183 85.6218 11.5028L84.0621 11.1449C82.9819 10.8892 82.5153 10.5249 82.5217 9.86009C82.5153 9.10582 83.3335 8.56889 84.4201 8.56889C85.609 8.56889 86.1587 9.22727 86.3825 9.88565L88.1147 9.57884ZM94.5435 17.1982C96.8638 17.1982 98.3659 15.8047 98.5769 13.8935H96.7168C96.4739 14.9545 95.6493 15.581 94.5563 15.581C92.9391 15.581 91.8972 14.2322 91.8972 12.0909C91.8972 9.98793 92.9583 8.66477 94.5563 8.66477C95.7708 8.66477 96.5123 9.43182 96.7168 10.3523H98.5769C98.3723 8.37074 96.7551 7.05398 94.5243 7.05398C91.7566 7.05398 89.9668 9.13778 89.9668 12.1357C89.9668 15.0952 91.6926 17.1982 94.5435 17.1982ZM104.756 17.1982C107.524 17.1982 109.333 15.1719 109.333 12.1357C109.333 9.08026 107.524 7.05398 104.756 7.05398C101.989 7.05398 100.18 9.08026 100.18 12.1357C100.18 15.1719 101.989 17.1982 104.756 17.1982ZM104.763 15.5938C102.954 15.5938 102.11 14.0149 102.11 12.1293C102.11 10.25 102.954 8.65199 104.763 8.65199C106.559 8.65199 107.403 10.25 107.403 12.1293C107.403 14.0149 106.559 15.5938 104.763 15.5938ZM117.686 12.9283C117.692 14.5966 116.452 15.3892 115.378 15.3892C114.196 15.3892 113.378 14.5327 113.378 13.1967V7.18182H111.466V13.4268C111.466 15.8622 112.802 17.1278 114.688 17.1278C116.165 17.1278 117.168 16.348 117.622 15.2997H117.724V17H119.604V7.18182H117.686V12.9283ZM124.083 11.1705C124.083 9.6044 125.042 8.70952 126.371 8.70952C127.669 8.70952 128.455 9.55966 128.455 10.9851V17H130.366V10.755C130.366 8.32599 129.03 7.05398 127.023 7.05398C125.547 7.05398 124.581 7.73793 124.127 8.77983H124.006V7.18182H122.172V17H124.083V11.1705ZM137.512 7.18182H135.499V4.82955H133.588V7.18182H132.15V8.71591H133.588V14.5135C133.581 16.2969 134.943 17.1598 136.451 17.1278C137.059 17.1214 137.468 17.0064 137.691 16.9233L137.346 15.3445C137.218 15.37 136.982 15.4276 136.675 15.4276C136.055 15.4276 135.499 15.223 135.499 14.1172V8.71591H137.512V7.18182Z" fill="#272343"/>
<path d="M63.321 40H69.9901V38.8281H64.642V35.1207H69.5639V33.9489H64.642V30.2628H69.9048V29.0909H63.321V40ZM78.8058 31.8182H77.4421L75.1836 38.3381H75.0984L72.8398 31.8182H71.4762L74.5018 40H75.7802L78.8058 31.8182ZM83.6025 40.1705C85.2644 40.1705 86.4789 39.3395 86.8624 38.1037L85.6479 37.7628C85.3283 38.6151 84.5879 39.0412 83.6025 39.0412C82.127 39.0412 81.1096 38.0877 81.051 36.3352H86.9902V35.8026C86.9902 32.7557 85.1792 31.7116 83.4746 31.7116C81.2587 31.7116 79.7885 33.4588 79.7885 35.973C79.7885 38.4872 81.2374 40.1705 83.6025 40.1705ZM81.051 35.2486C81.1362 33.9755 82.0364 32.8409 83.4746 32.8409C84.8382 32.8409 85.7118 33.8636 85.7118 35.2486H81.051ZM88.9025 40H90.1596V34.8224C90.1596 33.7145 91.0332 32.9048 92.2264 32.9048C92.562 32.9048 92.9082 32.9688 92.9934 32.9901V31.7116C92.8496 31.701 92.5194 31.6903 92.3329 31.6903C91.3528 31.6903 90.5005 32.2443 90.2022 33.054H90.117V31.8182H88.9025V40ZM95.5423 43.0682C96.6768 43.0682 97.4759 42.4663 97.9499 41.1932L101.434 31.8395L100.059 31.8182L97.8008 38.3381H97.7156L95.457 31.8182H94.0934L97.119 40.0426L96.8846 40.6818C96.4265 41.9283 95.8619 42.0455 94.9457 41.8111L94.6261 42.919C94.7539 42.983 95.1161 43.0682 95.5423 43.0682ZM109.169 40H110.405L112.195 33.7145H112.323L114.112 40H115.348L117.841 31.8182H116.52L114.752 38.0611H114.666L112.941 31.8182H111.598L109.851 38.0824H109.766L107.997 31.8182H106.676L109.169 40ZM122.655 40.1705C124.317 40.1705 125.532 39.3395 125.915 38.1037L124.701 37.7628C124.381 38.6151 123.641 39.0412 122.655 39.0412C121.18 39.0412 120.162 38.0877 120.104 36.3352H126.043V35.8026C126.043 32.7557 124.232 31.7116 122.527 31.7116C120.311 31.7116 118.841 33.4588 118.841 35.973C118.841 38.4872 120.29 40.1705 122.655 40.1705ZM120.104 35.2486C120.189 33.9755 121.089 32.8409 122.527 32.8409C123.891 32.8409 124.765 33.8636 124.765 35.2486H120.104ZM131.386 40.1705C133.048 40.1705 134.262 39.3395 134.646 38.1037L133.431 37.7628C133.112 38.6151 132.371 39.0412 131.386 39.0412C129.91 39.0412 128.893 38.0877 128.834 36.3352H134.773V35.8026C134.773 32.7557 132.962 31.7116 131.258 31.7116C129.042 31.7116 127.572 33.4588 127.572 35.973C127.572 38.4872 129.021 40.1705 131.386 40.1705ZM128.834 35.2486C128.919 33.9755 129.82 32.8409 131.258 32.8409C132.621 32.8409 133.495 33.8636 133.495 35.2486H128.834ZM136.686 40H137.943V36.9371L138.822 36.1222L141.885 40H143.483L139.77 35.3125L143.227 31.8182H141.672L138.092 35.4616H137.943V29.0909H136.686V40ZM150.321 35.0781C150.321 33.6506 151.205 32.8409 152.409 32.8409C153.575 32.8409 154.284 33.6026 154.284 34.8864V40H155.541V34.8011C155.541 32.7131 154.428 31.7116 152.771 31.7116C151.535 31.7116 150.768 32.2656 150.385 33.0966H150.278V31.8182H149.064V40H150.321V35.0781ZM161.268 40.1705C162.93 40.1705 164.145 39.3395 164.528 38.1037L163.314 37.7628C162.994 38.6151 162.254 39.0412 161.268 39.0412C159.793 39.0412 158.776 38.0877 158.717 36.3352H164.656V35.8026C164.656 32.7557 162.845 31.7116 161.141 31.7116C158.925 31.7116 157.455 33.4588 157.455 35.973C157.455 38.4872 158.903 40.1705 161.268 40.1705ZM158.717 35.2486C158.802 33.9755 159.702 32.8409 161.141 32.8409C162.504 32.8409 163.378 33.8636 163.378 35.2486H158.717ZM168.422 40H169.658L171.448 33.7145H171.576L173.365 40H174.601L177.094 31.8182H175.773L174.005 38.0611H173.919L172.194 31.8182H170.851L169.104 38.0824H169.019L167.25 31.8182H165.929L168.422 40ZM188.77 33.6506C188.376 32.4893 187.492 31.7116 185.873 31.7116C184.147 31.7116 182.868 32.6918 182.868 34.0767C182.868 35.206 183.539 35.9624 185.042 36.3139L186.405 36.6335C187.231 36.8253 187.62 37.2195 187.62 37.7841C187.62 38.4872 186.874 39.0625 185.702 39.0625C184.674 39.0625 184.029 38.6204 183.806 37.7415L182.613 38.0398C182.906 39.43 184.051 40.1705 185.723 40.1705C187.625 40.1705 188.919 39.1317 188.919 37.7202C188.919 36.5803 188.206 35.8612 186.746 35.5043L185.532 35.206C184.562 34.9663 184.125 34.6413 184.125 34.0128C184.125 33.3097 184.871 32.7983 185.873 32.7983C186.97 32.7983 187.423 33.4055 187.641 33.9702L188.77 33.6506ZM193.219 40.1918C194.647 40.1918 195.393 39.4247 195.648 38.892H195.712V40H196.969V34.6094C196.969 32.0099 194.988 31.7116 193.944 31.7116C192.708 31.7116 191.302 32.1378 190.663 33.6293L191.856 34.0554C192.133 33.4588 192.788 32.8196 193.986 32.8196C195.142 32.8196 195.712 33.4322 195.712 34.4815V34.5241C195.712 35.1314 195.094 35.0781 193.603 35.2699C192.085 35.467 190.428 35.8026 190.428 37.6776C190.428 39.2756 191.664 40.1918 193.219 40.1918ZM193.411 39.0625C192.41 39.0625 191.685 38.6151 191.685 37.7415C191.685 36.7827 192.559 36.4844 193.539 36.3565C194.072 36.2926 195.499 36.1435 195.712 35.8878V37.0384C195.712 38.0611 194.903 39.0625 193.411 39.0625ZM200.521 29.0909H199.264V40H200.521V29.0909ZM206.254 40.1705C207.916 40.1705 209.13 39.3395 209.514 38.1037L208.299 37.7628C207.98 38.6151 207.239 39.0412 206.254 39.0412C204.778 39.0412 203.761 38.0877 203.702 36.3352H209.642V35.8026C209.642 32.7557 207.831 31.7116 206.126 31.7116C203.91 31.7116 202.44 33.4588 202.44 35.973C202.44 38.4872 203.889 40.1705 206.254 40.1705ZM203.702 35.2486C203.788 33.9755 204.688 32.8409 206.126 32.8409C207.49 32.8409 208.363 33.8636 208.363 35.2486H203.702ZM217.349 33.6506C216.955 32.4893 216.071 31.7116 214.452 31.7116C212.726 31.7116 211.447 32.6918 211.447 34.0767C211.447 35.206 212.119 35.9624 213.621 36.3139L214.984 36.6335C215.81 36.8253 216.199 37.2195 216.199 37.7841C216.199 38.4872 215.453 39.0625 214.281 39.0625C213.253 39.0625 212.609 38.6204 212.385 37.7415L211.192 38.0398C211.485 39.43 212.63 40.1705 214.302 40.1705C216.204 40.1705 217.498 39.1317 217.498 37.7202C217.498 36.5803 216.785 35.8612 215.325 35.5043L214.111 35.206C213.141 34.9663 212.704 34.6413 212.704 34.0128C212.704 33.3097 213.45 32.7983 214.452 32.7983C215.549 32.7983 216.002 33.4055 216.22 33.9702L217.349 33.6506Z" fill="#9A9CAA"/>
<defs>
<clipPath id="clip0_1_552">
<rect width="46" height="46" fill="white"/>
</clipPath>
</defs>
</svg>
