<svg width="283" height="50" viewBox="0 0 283 50" fill="none" xmlns="http://www.w3.org/2000/svg">
<g clip-path="url(#clip0_1_612)">
<path d="M49.2188 6.95611C49.2017 6.63932 48.9825 6.36949 48.6759 6.28785L25.1704 0.0246826C25.0466 -0.00822752 24.9166 -0.00822752 24.7929 0.0246826L1.32403 6.28795C1.01798 6.36969 0.799031 6.63883 0.781453 6.95514C0.765144 7.24811 0.414461 14.2331 3.16123 23.0639C4.77559 28.2539 7.13222 32.9926 10.1658 37.1484C13.9605 42.3471 18.8277 46.6391 24.632 49.9058C24.7434 49.9685 24.8672 50 24.9912 50C25.1091 50 25.2272 49.9715 25.3347 49.9144C31.1488 46.8262 36.0241 42.643 39.8249 37.481C42.8619 33.3563 45.2212 28.6037 46.8372 23.3552C49.5855 14.4291 49.2351 7.25719 49.2188 6.95611ZM45.4219 22.9736C43.8516 28.0558 41.5654 32.6529 38.6267 36.6376C35.1991 41.2852 30.8648 45.1106 25.7327 48.0236V44.2556C32.3859 40.0553 37.4036 34.1094 40.6473 26.5751C43.3181 20.3717 44.1884 14.4831 44.4482 10.6354C44.4718 10.2858 44.2446 9.96841 43.9059 9.87828L42.4122 9.48033C42.0215 9.37623 41.62 9.60855 41.5159 9.99957C41.4117 10.3904 41.6441 10.7918 42.0351 10.896L42.942 11.1376C42.6415 14.8677 41.7552 20.2971 39.3017 25.9958C36.1947 33.2129 31.4039 38.9148 25.0581 42.9508C24.4211 42.5296 23.7946 42.09 23.191 41.6406C22.8667 41.399 22.4077 41.4661 22.166 41.7906C21.9244 42.115 21.9915 42.574 22.316 42.8156C22.9467 43.2853 23.6019 43.7433 24.2675 44.1828V47.9997C19.1331 44.9282 14.7976 41.0013 11.3689 36.3118C8.43114 32.2938 6.1458 27.7075 4.57627 22.6806C2.31719 15.4447 2.20674 9.34488 2.23018 7.56236L24.2675 1.68112V5.02672L6.10468 9.87398C5.76523 9.96461 5.53789 10.2835 5.56289 10.6339C5.75205 13.281 6.28447 17.3995 7.74726 21.9882C10.1655 29.5743 14.227 35.9031 19.8189 40.7989C19.9579 40.9206 20.1299 40.9803 20.3012 40.9803C20.505 40.9803 20.7078 40.8957 20.8527 40.7303C21.1192 40.4259 21.0884 39.9631 20.7841 39.6967C15.3958 34.9793 11.4792 28.8716 9.14306 21.5434C7.83076 17.4267 7.29033 13.7003 7.07148 11.1325L24.9829 6.35241L38.8691 10.0525C39.26 10.1565 39.6614 9.92427 39.7655 9.53326C39.8696 9.14244 39.6372 8.74097 39.2462 8.63687L25.7326 5.036V1.6906L47.7697 7.56266C47.794 9.37564 47.6883 15.6388 45.4219 22.9736Z" fill="#272343"/>
<path d="M36.0205 17.1149C35.5866 16.6803 35.0093 16.4412 34.3951 16.4412C33.7807 16.4412 33.2035 16.6803 32.77 17.1145L23.4343 26.4497L18.3377 21.3535C17.904 20.9191 17.3266 20.6798 16.7124 20.6798C16.098 20.6798 15.5209 20.919 15.0875 21.353C14.6533 21.7871 14.4139 22.3642 14.4139 22.9783C14.4139 23.5923 14.6531 24.1694 15.0873 24.6033L21.8089 31.3249C22.2427 31.7593 22.8199 31.9986 23.4342 31.9986C24.0486 31.9986 24.6257 31.7594 25.0593 31.3252L36.0199 20.3647C36.4541 19.9308 36.6934 19.3536 36.6934 18.7395C36.6934 18.1254 36.4542 17.5483 36.0205 17.1149ZM34.9841 19.3286L24.0231 30.2896C23.8661 30.4468 23.657 30.5334 23.4342 30.5334C23.2115 30.5334 23.0024 30.4468 22.8451 30.2893L16.123 23.5671C15.9657 23.4099 15.879 23.2008 15.879 22.9782C15.879 22.7555 15.9657 22.5465 16.1235 22.3886C16.2805 22.2314 16.4897 22.1448 16.7124 22.1448C16.9349 22.1448 17.144 22.2314 17.3015 22.3889L22.9165 28.0034C23.2025 28.2895 23.6664 28.2894 23.9523 28.0034L33.8063 18.1499C33.9633 17.9926 34.1725 17.906 34.3952 17.906C34.6178 17.906 34.8268 17.9926 34.9844 18.1503C35.1417 18.3076 35.2285 18.5167 35.2285 18.7393C35.2285 18.9619 35.1417 19.1711 34.9841 19.3286Z" fill="#272343"/>
</g>
<path d="M74.5781 10.848H76.483C76.4254 8.75142 74.5717 7.23011 71.9126 7.23011C69.2855 7.23011 67.272 8.73224 67.272 10.9886C67.272 12.8104 68.576 13.8778 70.679 14.4467L72.2259 14.8686C73.6257 15.2393 74.706 15.6996 74.706 16.8629C74.706 18.1413 73.4851 18.9851 71.804 18.9851C70.2827 18.9851 69.017 18.3075 68.902 16.8821H66.9205C67.0483 19.2536 68.8828 20.7173 71.8168 20.7173C74.8913 20.7173 76.6619 19.1001 76.6619 16.8821C76.6619 14.5234 74.5589 13.6094 72.897 13.2003L71.6186 12.8679C70.5959 12.6058 69.2344 12.1264 69.2408 10.8736C69.2408 9.76136 70.2571 8.93679 71.8679 8.93679C73.37 8.93679 74.4375 9.63991 74.5781 10.848ZM83.1003 20.6982C85.2417 20.6982 86.7566 19.6435 87.1912 18.0455L85.3823 17.7195C85.0371 18.6463 84.2061 19.1193 83.1195 19.1193C81.4831 19.1193 80.3837 18.0582 80.3326 16.1662H87.3127V15.4886C87.3127 11.9411 85.1905 10.554 82.9661 10.554C80.2303 10.554 78.4277 12.6378 78.4277 15.6548C78.4277 18.7038 80.2047 20.6982 83.1003 20.6982ZM80.339 14.7344C80.4157 13.3409 81.4256 12.1328 82.9789 12.1328C84.4618 12.1328 85.4334 13.2322 85.4398 14.7344H80.339ZM93.5689 20.6982C95.8892 20.6982 97.3913 19.3047 97.6023 17.3935H95.7422C95.4993 18.4545 94.6747 19.081 93.5817 19.081C91.9645 19.081 90.9226 17.7322 90.9226 15.5909C90.9226 13.4879 91.9837 12.1648 93.5817 12.1648C94.7962 12.1648 95.5376 12.9318 95.7422 13.8523H97.6023C97.3977 11.8707 95.7805 10.554 93.5497 10.554C90.782 10.554 88.9922 12.6378 88.9922 15.6357C88.9922 18.5952 90.718 20.6982 93.5689 20.6982ZM105.866 16.4283C105.872 18.0966 104.632 18.8892 103.558 18.8892C102.376 18.8892 101.557 18.0327 101.557 16.6967V10.6818H99.6461V16.9268C99.6461 19.3622 100.982 20.6278 102.868 20.6278C104.344 20.6278 105.348 19.848 105.802 18.7997H105.904V20.5H107.783V10.6818H105.866V16.4283ZM110.351 20.5H112.262V14.5043C112.262 13.2195 113.253 12.2926 114.608 12.2926C115.005 12.2926 115.452 12.3629 115.605 12.4077V10.5795C115.414 10.554 115.037 10.5348 114.794 10.5348C113.643 10.5348 112.659 11.1868 112.301 12.2415H112.199V10.6818H110.351V20.5ZM121.139 20.6982C123.281 20.6982 124.796 19.6435 125.23 18.0455L123.421 17.7195C123.076 18.6463 122.245 19.1193 121.159 19.1193C119.522 19.1193 118.423 18.0582 118.372 16.1662H125.352V15.4886C125.352 11.9411 123.23 10.554 121.005 10.554C118.269 10.554 116.467 12.6378 116.467 15.6548C116.467 18.7038 118.244 20.6982 121.139 20.6982ZM118.378 14.7344C118.455 13.3409 119.465 12.1328 121.018 12.1328C122.501 12.1328 123.472 13.2322 123.479 14.7344H118.378ZM132.389 20.5H134.365V15.8977H137.049C140.085 15.8977 141.588 14.0632 141.588 11.647C141.588 9.23722 140.098 7.40909 137.056 7.40909H132.389V20.5ZM134.365 14.223V9.10298H136.845C138.801 9.10298 139.6 10.1641 139.6 11.647C139.6 13.13 138.801 14.223 136.87 14.223H134.365ZM146.519 20.7173C148.143 20.7173 149.057 19.8928 149.421 19.1577H149.498V20.5H151.364V13.9801C151.364 11.1229 149.114 10.554 147.555 10.554C145.778 10.554 144.141 11.2699 143.502 13.0597L145.298 13.4688C145.579 12.772 146.295 12.1009 147.58 12.1009C148.814 12.1009 149.447 12.7464 149.447 13.8587V13.9034C149.447 14.6001 148.731 14.5874 146.966 14.7919C145.106 15.0092 143.202 15.495 143.202 17.7259C143.202 19.6562 144.653 20.7173 146.519 20.7173ZM146.934 19.1832C145.854 19.1832 145.074 18.6974 145.074 17.7514C145.074 16.7287 145.982 16.3643 147.088 16.2173C147.708 16.1342 149.178 15.968 149.453 15.6932V16.9588C149.453 18.1222 148.526 19.1832 146.934 19.1832ZM154.766 24.1818C156.345 24.1818 157.342 23.3572 157.911 21.8104L161.97 10.701L159.906 10.6818L157.419 18.3011H157.317L154.83 10.6818H152.785L156.377 20.6278L156.141 21.2798C155.655 22.5838 154.971 22.6925 153.923 22.4048L153.462 23.9709C153.692 24.0732 154.191 24.1818 154.766 24.1818ZM163.771 20.5H165.682V14.4467C165.682 13.1236 166.609 12.2031 167.696 12.2031C168.757 12.2031 169.492 12.9062 169.492 13.9737V20.5H171.397V14.2422C171.397 13.0597 172.119 12.2031 173.366 12.2031C174.376 12.2031 175.206 12.7656 175.206 14.0952V20.5H177.118V13.9162C177.118 11.6726 175.865 10.554 174.088 10.554C172.675 10.554 171.614 11.2315 171.141 12.2798H171.039C170.611 11.206 169.709 10.554 168.399 10.554C167.101 10.554 166.136 11.1996 165.727 12.2798H165.606V10.6818H163.771V20.5ZM183.911 20.6982C186.052 20.6982 187.567 19.6435 188.002 18.0455L186.193 17.7195C185.848 18.6463 185.017 19.1193 183.93 19.1193C182.294 19.1193 181.194 18.0582 181.143 16.1662H188.123V15.4886C188.123 11.9411 186.001 10.554 183.777 10.554C181.041 10.554 179.238 12.6378 179.238 15.6548C179.238 18.7038 181.015 20.6982 183.911 20.6982ZM181.15 14.7344C181.226 13.3409 182.236 12.1328 183.789 12.1328C185.272 12.1328 186.244 13.2322 186.25 14.7344H181.15ZM192.155 14.6705C192.155 13.1044 193.114 12.2095 194.443 12.2095C195.741 12.2095 196.527 13.0597 196.527 14.4851V20.5H198.438V14.255C198.438 11.826 197.102 10.554 195.095 10.554C193.619 10.554 192.654 11.2379 192.2 12.2798H192.078V10.6818H190.244V20.5H192.155V14.6705ZM205.585 10.6818H203.571V8.32955H201.66V10.6818H200.222V12.2159H201.66V18.0135C201.654 19.7969 203.015 20.6598 204.524 20.6278C205.131 20.6214 205.54 20.5064 205.764 20.4233L205.419 18.8445C205.291 18.87 205.054 18.9276 204.747 18.9276C204.127 18.9276 203.571 18.723 203.571 17.6172V12.2159H205.585V10.6818Z" fill="#272343"/>
<path d="M70.9645 32.5909H69.6435L66.9162 34.402V35.7443L69.5795 33.9759H69.6435V43.5H70.9645V32.5909ZM77.6602 43.6491C80.0678 43.6491 81.4528 41.609 81.4528 38.0455C81.4528 34.5085 80.0465 32.4418 77.6602 32.4418C75.2738 32.4418 73.8675 34.5085 73.8675 38.0455C73.8675 41.609 75.2525 43.6491 77.6602 43.6491ZM77.6602 42.4773C76.0728 42.4773 75.146 40.8846 75.146 38.0455C75.146 35.2116 76.0835 33.5923 77.6602 33.5923C79.2369 33.5923 80.1744 35.2116 80.1744 38.0455C80.1744 40.8846 79.2475 42.4773 77.6602 42.4773ZM87.0352 43.6491C89.4428 43.6491 90.8278 41.609 90.8278 38.0455C90.8278 34.5085 89.4215 32.4418 87.0352 32.4418C84.6488 32.4418 83.2425 34.5085 83.2425 38.0455C83.2425 41.609 84.6275 43.6491 87.0352 43.6491ZM87.0352 42.4773C85.4478 42.4773 84.521 40.8846 84.521 38.0455C84.521 35.2116 85.4585 33.5923 87.0352 33.5923C88.6119 33.5923 89.5494 35.2116 89.5494 38.0455C89.5494 40.8846 88.6225 42.4773 87.0352 42.4773ZM98.413 41.4545C98.413 42.6477 99.1587 43.6491 100.544 43.6491C101.907 43.6491 102.653 42.6477 102.653 41.4545V40.8793C102.653 39.6861 101.929 38.6847 100.544 38.6847C99.18 38.6847 98.413 39.6861 98.413 40.8793V41.4545ZM92.9798 35.2116C92.9798 36.4048 93.7255 37.4062 95.1104 37.4062C96.4741 37.4062 97.2198 36.4048 97.2198 35.2116V34.6364C97.2198 33.4432 96.4954 32.4418 95.1104 32.4418C93.7468 32.4418 92.9798 33.4432 92.9798 34.6364V35.2116ZM93.3846 43.5H94.5991L102.099 32.5909H100.885L93.3846 43.5ZM99.4996 40.8793C99.4996 40.2188 99.7979 39.6009 100.544 39.6009C101.311 39.6009 101.566 40.2188 101.566 40.8793V41.4545C101.566 42.1151 101.289 42.733 100.544 42.733C99.7766 42.733 99.4996 42.1151 99.4996 41.4545V40.8793ZM94.0664 34.6364C94.0664 33.9759 94.3647 33.358 95.1104 33.358C95.8775 33.358 96.1332 33.9759 96.1332 34.6364V35.2116C96.1332 35.8722 95.8562 36.4901 95.1104 36.4901C94.3434 36.4901 94.0664 35.8722 94.0664 35.2116V34.6364ZM115.416 35.3182H116.694C116.636 33.6722 115.118 32.4418 113.008 32.4418C110.92 32.4418 109.279 33.6562 109.279 35.4886C109.279 36.9588 110.345 37.8324 112.049 38.3224L113.392 38.706C114.542 39.0256 115.565 39.4304 115.565 40.517C115.565 41.7102 114.414 42.4986 112.902 42.4986C111.602 42.4986 110.451 41.9233 110.345 40.6875H108.981C109.109 42.4773 110.558 43.6918 112.902 43.6918C115.416 43.6918 116.843 42.3068 116.843 40.5384C116.843 38.4929 114.904 37.8324 113.775 37.5341L112.667 37.2358C111.858 37.0227 110.558 36.5966 110.558 35.4247C110.558 34.3807 111.517 33.6136 112.966 33.6136C114.287 33.6136 115.288 34.2422 115.416 35.3182ZM122.275 43.6705C123.937 43.6705 125.152 42.8395 125.535 41.6037L124.321 41.2628C124.001 42.1151 123.261 42.5412 122.275 42.5412C120.8 42.5412 119.782 41.5877 119.724 39.8352H125.663V39.3026C125.663 36.2557 123.852 35.2116 122.147 35.2116C119.932 35.2116 118.461 36.9588 118.461 39.473C118.461 41.9872 119.91 43.6705 122.275 43.6705ZM119.724 38.7486C119.809 37.4755 120.709 36.3409 122.147 36.3409C123.511 36.3409 124.385 37.3636 124.385 38.7486H119.724ZM130.899 43.6705C132.71 43.6705 133.903 42.5625 134.117 41.1136H132.859C132.625 42.0085 131.879 42.5412 130.899 42.5412C129.408 42.5412 128.449 41.3054 128.449 39.4091C128.449 37.5554 129.429 36.3409 130.899 36.3409C132.007 36.3409 132.668 37.0227 132.859 37.7685H134.117C133.903 36.2344 132.604 35.2116 130.878 35.2116C128.662 35.2116 127.192 36.9588 127.192 39.4517C127.192 41.902 128.598 43.6705 130.899 43.6705ZM141.111 40.1548C141.111 41.6889 139.939 42.392 139.001 42.392C137.957 42.392 137.211 41.625 137.211 40.4318V35.3182H135.954V40.517C135.954 42.6051 137.062 43.6065 138.596 43.6065C139.832 43.6065 140.642 42.946 141.025 42.1151H141.111V43.5H142.368V35.3182H141.111V40.1548ZM144.67 43.5H145.927V38.3224C145.927 37.2145 146.801 36.4048 147.994 36.4048C148.33 36.4048 148.676 36.4688 148.761 36.4901V35.2116C148.617 35.201 148.287 35.1903 148.1 35.1903C147.12 35.1903 146.268 35.7443 145.97 36.554H145.885V35.3182H144.67V43.5ZM153.433 43.6705C155.094 43.6705 156.309 42.8395 156.692 41.6037L155.478 41.2628C155.158 42.1151 154.418 42.5412 153.433 42.5412C151.957 42.5412 150.94 41.5877 150.881 39.8352H156.82V39.3026C156.82 36.2557 155.009 35.2116 153.305 35.2116C151.089 35.2116 149.619 36.9588 149.619 39.473C149.619 41.9872 151.067 43.6705 153.433 43.6705ZM150.881 38.7486C150.966 37.4755 151.866 36.3409 153.305 36.3409C154.668 36.3409 155.542 37.3636 155.542 38.7486H150.881ZM163.122 43.5H164.443V39.5156H166.829C169.37 39.5156 170.515 37.9709 170.515 36.0426C170.515 34.1143 169.37 32.5909 166.808 32.5909H163.122V43.5ZM164.443 38.3438V33.7628H166.765C168.539 33.7628 169.216 34.7322 169.216 36.0426C169.216 37.353 168.539 38.3438 166.787 38.3438H164.443ZM174.881 43.6918C176.308 43.6918 177.054 42.9247 177.309 42.392H177.373V43.5H178.631V38.1094C178.631 35.5099 176.649 35.2116 175.605 35.2116C174.369 35.2116 172.963 35.6378 172.324 37.1293L173.517 37.5554C173.794 36.9588 174.449 36.3196 175.648 36.3196C176.803 36.3196 177.373 36.9322 177.373 37.9815V38.0241C177.373 38.6314 176.756 38.5781 175.264 38.7699C173.746 38.967 172.089 39.3026 172.089 41.1776C172.089 42.7756 173.325 43.6918 174.881 43.6918ZM175.072 42.5625C174.071 42.5625 173.346 42.1151 173.346 41.2415C173.346 40.2827 174.22 39.9844 175.2 39.8565C175.733 39.7926 177.16 39.6435 177.373 39.3878V40.5384C177.373 41.5611 176.564 42.5625 175.072 42.5625ZM181.442 46.5682C182.576 46.5682 183.375 45.9663 183.849 44.6932L187.333 35.3395L185.959 35.3182L183.7 41.8381H183.615L181.356 35.3182H179.993L183.018 43.5426L182.784 44.1818C182.326 45.4283 181.761 45.5455 180.845 45.3111L180.525 46.419C180.653 46.483 181.016 46.5682 181.442 46.5682ZM188.996 43.5H190.253V38.3864C190.253 37.1879 191.127 36.3409 192.107 36.3409C193.061 36.3409 193.726 36.9641 193.726 37.8963V43.5H195.005V38.1733C195.005 37.1186 195.665 36.3409 196.816 36.3409C197.711 36.3409 198.478 36.815 198.478 38.0241V43.5H199.735V38.0241C199.735 36.1012 198.702 35.2116 197.242 35.2116C196.07 35.2116 195.213 35.7496 194.792 36.5966H194.706C194.302 35.723 193.588 35.2116 192.512 35.2116C191.447 35.2116 190.658 35.723 190.317 36.5966H190.211V35.3182H188.996V43.5ZM205.464 43.6705C207.126 43.6705 208.34 42.8395 208.724 41.6037L207.509 41.2628C207.19 42.1151 206.449 42.5412 205.464 42.5412C203.988 42.5412 202.971 41.5877 202.912 39.8352H208.852V39.3026C208.852 36.2557 207.04 35.2116 205.336 35.2116C203.12 35.2116 201.65 36.9588 201.65 39.473C201.65 41.9872 203.099 43.6705 205.464 43.6705ZM202.912 38.7486C202.998 37.4755 203.898 36.3409 205.336 36.3409C206.7 36.3409 207.573 37.3636 207.573 38.7486H202.912ZM212.021 38.5781C212.021 37.1506 212.905 36.3409 214.109 36.3409C215.276 36.3409 215.984 37.1026 215.984 38.3864V43.5H217.241V38.3011C217.241 36.2131 216.128 35.2116 214.471 35.2116C213.235 35.2116 212.468 35.7656 212.085 36.5966H211.978V35.3182H210.764V43.5H212.021V38.5781ZM223.097 35.3182H221.349V33.358H220.092V35.3182H218.856V36.3835H220.092V41.4972C220.092 42.9247 221.243 43.6065 222.308 43.6065C222.777 43.6065 223.075 43.5213 223.246 43.4574L222.99 42.3281C222.883 42.3494 222.713 42.392 222.436 42.392C221.882 42.392 221.349 42.2216 221.349 41.1562V36.3835H223.097V35.3182ZM229.377 32.5909V43.5H230.612V35.2116H230.719L234.128 43.5H235.321L238.73 35.2116H238.837V43.5H240.073V32.5909H238.496L234.789 41.6463H234.661L230.953 32.5909H229.377ZM245.981 43.6705C247.643 43.6705 248.858 42.8395 249.241 41.6037L248.027 41.2628C247.707 42.1151 246.967 42.5412 245.981 42.5412C244.506 42.5412 243.488 41.5877 243.43 39.8352H249.369V39.3026C249.369 36.2557 247.558 35.2116 245.854 35.2116C243.638 35.2116 242.167 36.9588 242.167 39.473C242.167 41.9872 243.616 43.6705 245.981 43.6705ZM243.43 38.7486C243.515 37.4755 244.415 36.3409 245.854 36.3409C247.217 36.3409 248.091 37.3636 248.091 38.7486H243.43ZM254.84 35.3182H253.093V33.358H251.835V35.3182H250.6V36.3835H251.835V41.4972C251.835 42.9247 252.986 43.6065 254.051 43.6065C254.52 43.6065 254.818 43.5213 254.989 43.4574L254.733 42.3281C254.627 42.3494 254.456 42.392 254.179 42.392C253.625 42.392 253.093 42.2216 253.093 41.1562V36.3835H254.84V35.3182ZM258.164 38.5781C258.164 37.1506 259.074 36.3409 260.316 36.3409C261.498 36.3409 262.212 37.0866 262.212 38.3864V43.5H263.469V38.3011C263.469 36.1971 262.35 35.2116 260.678 35.2116C259.389 35.2116 258.654 35.7496 258.27 36.5966H258.164V32.5909H256.906V43.5H258.164V38.5781ZM269.093 43.6705C271.309 43.6705 272.8 41.9872 272.8 39.4517C272.8 36.8949 271.309 35.2116 269.093 35.2116C266.877 35.2116 265.385 36.8949 265.385 39.4517C265.385 41.9872 266.877 43.6705 269.093 43.6705ZM269.093 42.5412C267.409 42.5412 266.642 41.0923 266.642 39.4517C266.642 37.8111 267.409 36.3409 269.093 36.3409C270.776 36.3409 271.543 37.8111 271.543 39.4517C271.543 41.0923 270.776 42.5412 269.093 42.5412ZM277.808 43.6705C279.385 43.6705 279.918 42.6903 280.195 42.2429H280.344V43.5H281.558V32.5909H280.301V36.6179H280.195C279.918 36.1918 279.428 35.2116 277.83 35.2116C275.763 35.2116 274.335 36.8523 274.335 39.4304C274.335 42.0298 275.763 43.6705 277.808 43.6705ZM277.979 42.5412C276.402 42.5412 275.593 41.1562 275.593 39.4091C275.593 37.6832 276.381 36.3409 277.979 36.3409C279.513 36.3409 280.323 37.5767 280.323 39.4091C280.323 41.2628 279.492 42.5412 277.979 42.5412Z" fill="#9A9CAA"/>
<defs>
<clipPath id="clip0_1_612">
<rect width="50" height="50" fill="white"/>
</clipPath>
</defs>
</svg>
