<svg width="250" height="50" viewBox="0 0 250 50" fill="none" xmlns="http://www.w3.org/2000/svg">
<g clip-path="url(#clip0_1_583)">
<path d="M47.5937 14.2852C47.4201 13.9197 46.9829 13.7643 46.6179 13.9379C46.2525 14.1114 46.097 14.5483 46.2705 14.9138C47.7733 18.077 48.5352 21.4705 48.5352 25.0001C48.5352 31.2866 46.0871 37.1968 41.6419 41.642C37.1968 46.0872 31.2865 48.5353 25 48.5353C21.2718 48.5353 17.7063 47.6892 14.403 46.0205C11.6506 44.6301 9.16396 42.678 7.14482 40.3323L10.0346 41.2956C10.4183 41.4235 10.8331 41.2161 10.961 40.8323C11.089 40.4485 10.8815 40.0338 10.4977 39.9059L5.29755 38.1725C5.05673 38.0923 4.7915 38.1423 4.59667 38.305C4.40185 38.4677 4.30507 38.7196 4.34091 38.9709L5.20761 45.0378C5.25985 45.4031 5.57314 45.6667 5.93183 45.6667C5.9663 45.6667 6.00116 45.6643 6.03632 45.6593C6.43681 45.602 6.71503 45.2311 6.65781 44.8307L6.17421 41.4456C8.29326 43.8655 10.8819 45.8829 13.7427 47.328C17.2526 49.1011 21.0401 50.0001 25 50.0001C31.6777 50.0001 37.9559 47.3996 42.6777 42.6778C47.3995 37.9559 50 31.6778 50 25.0001C50 21.2514 49.1904 17.6464 47.5937 14.2852Z" fill="#272343"/>
<path d="M45.6592 11.0293L44.7925 4.9624C44.7353 4.56191 44.3634 4.28389 43.9639 4.34092C43.5634 4.39814 43.2852 4.76914 43.3424 5.16953L43.8255 8.55117C39.0691 3.10156 32.2791 0 25 0C18.3223 0 12.0442 2.60049 7.32227 7.32227C2.60049 12.0442 0 18.3223 0 25C0 28.7488 0.809668 32.3539 2.40635 35.7149C2.53174 35.9789 2.79443 36.1333 3.06846 36.1333C3.17373 36.1333 3.28076 36.1105 3.38223 36.0622C3.74756 35.8887 3.90303 35.4518 3.72949 35.0863C2.22676 31.9233 1.46484 28.5298 1.46484 25C1.46484 18.7135 3.91289 12.8033 8.35811 8.35811C12.8033 3.91289 18.7135 1.46484 25 1.46484C31.9195 1.46484 38.3694 4.44277 42.8531 9.66709L39.9655 8.70459C39.5815 8.57646 39.1669 8.78408 39.0391 9.16787C38.9112 9.55166 39.1185 9.96641 39.5022 10.0943L44.7024 11.8277C44.7782 11.8529 44.8563 11.8653 44.934 11.8653C45.1031 11.8653 45.2697 11.8067 45.4034 11.6952C45.5982 11.5325 45.695 11.2806 45.6592 11.0293Z" fill="#272343"/>
<path d="M22.9646 32.8787H15.597C15.8912 30.3152 17.7128 28.5953 19.6318 26.7833C21.6304 24.8962 23.697 22.9449 23.697 20.0146C23.697 17.6116 21.5423 15.6565 18.8939 15.6565C16.2454 15.6565 14.0908 17.6116 14.0908 20.0146C14.0908 20.4191 14.4187 20.747 14.8232 20.747C15.2277 20.747 15.5556 20.4191 15.5556 20.0146C15.5556 18.4193 17.0531 17.1213 18.8939 17.1213C20.7347 17.1213 22.2322 18.4193 22.2322 20.0146C22.2322 22.3134 20.4805 23.9673 18.6261 25.7183C16.5002 27.7255 14.0908 30.0006 14.0908 33.6111C14.0908 34.0156 14.4187 34.3435 14.8232 34.3435H22.9646C23.3691 34.3435 23.697 34.0156 23.697 33.6111C23.697 33.2066 23.3691 32.8787 22.9646 32.8787Z" fill="#272343"/>
<path d="M35.1767 28.1816H34.3435V16.3889C34.3435 15.9844 34.0157 15.6565 33.6111 15.6565C33.2065 15.6565 32.8787 15.9844 32.8787 16.3889V28.1817H26.6654L28.8511 16.524C28.9257 16.1264 28.6638 15.7436 28.2662 15.6691C27.8691 15.595 27.4861 15.8564 27.4115 16.254L25.063 28.7792C25.0229 28.9933 25.0801 29.2142 25.2193 29.3819C25.3584 29.5496 25.565 29.6465 25.7828 29.6465H32.8787V33.6111C32.8787 34.0155 33.2065 34.3434 33.6111 34.3434C34.0157 34.3434 34.3435 34.0155 34.3435 33.611V29.6464H35.1767C35.5813 29.6464 35.9091 29.3185 35.9091 28.914C35.9091 28.5095 35.5813 28.1816 35.1767 28.1816Z" fill="#272343"/>
<path d="M25 3.91406C24.5955 3.91406 24.2676 4.24199 24.2676 4.64648V7.77773C24.2676 8.18223 24.5955 8.51016 25 8.51016C25.4046 8.51016 25.7324 8.18223 25.7324 7.77773V4.64648C25.7324 4.24199 25.4046 3.91406 25 3.91406Z" fill="#272343"/>
<path d="M25 41.4897C24.5955 41.4897 24.2676 41.8177 24.2676 42.2222V45.3534C24.2676 45.7579 24.5955 46.0858 25 46.0858C25.4046 46.0858 25.7324 45.7579 25.7324 45.3534V42.2222C25.7324 41.8177 25.4046 41.4897 25 41.4897Z" fill="#272343"/>
<path d="M45.3533 24.2676H42.222C41.8175 24.2676 41.4896 24.5955 41.4896 25C41.4896 25.4045 41.8175 25.7324 42.222 25.7324H45.3533C45.7579 25.7324 46.0857 25.4045 46.0857 25C46.0857 24.5955 45.7579 24.2676 45.3533 24.2676Z" fill="#272343"/>
<path d="M7.77779 24.2676H4.64655C4.24205 24.2676 3.91412 24.5955 3.91412 25C3.91412 25.4045 4.24205 25.7324 4.64655 25.7324H7.77779C8.18229 25.7324 8.51022 25.4045 8.51022 25C8.51022 24.5955 8.18229 24.2676 7.77779 24.2676Z" fill="#272343"/>
</g>
<path d="M76.2976 11.5447H78.3239C77.8828 8.99432 75.7031 7.23011 72.8778 7.23011C69.4901 7.23011 67.0163 9.78054 67.0163 13.9609C67.0163 18.103 69.4197 20.679 72.9673 20.679C76.1442 20.679 78.4134 18.5952 78.4134 15.2905V13.8011H73.2678V15.4311H76.5021C76.4574 17.5405 75.0639 18.8764 72.9673 18.8764C70.6598 18.8764 68.9787 17.1314 68.9787 13.9482C68.9787 10.7777 70.6726 9.03267 72.8906 9.03267C74.6293 9.03267 75.8054 9.99148 76.2976 11.5447ZM80.7672 20.5H82.6784V14.5043C82.6784 13.2195 83.6692 12.2926 85.0243 12.2926C85.4206 12.2926 85.8681 12.3629 86.0215 12.4077V10.5795C85.8297 10.554 85.4526 10.5348 85.2097 10.5348C84.0591 10.5348 83.0748 11.1868 82.7168 12.2415H82.6145V10.6818H80.7672V20.5ZM91.5554 20.6982C93.6967 20.6982 95.2116 19.6435 95.6463 18.0455L93.8374 17.7195C93.4922 18.6463 92.6612 19.1193 91.5746 19.1193C89.9382 19.1193 88.8388 18.0582 88.7876 16.1662H95.7678V15.4886C95.7678 11.9411 93.6456 10.554 91.4212 10.554C88.6854 10.554 86.8828 12.6378 86.8828 15.6548C86.8828 18.7038 88.6598 20.6982 91.5554 20.6982ZM88.794 14.7344C88.8707 13.3409 89.8807 12.1328 91.4339 12.1328C92.9169 12.1328 93.8885 13.2322 93.8949 14.7344H88.794ZM100.746 20.7173C102.369 20.7173 103.283 19.8928 103.648 19.1577H103.724V20.5H105.591V13.9801C105.591 11.1229 103.341 10.554 101.781 10.554C100.004 10.554 98.3677 11.2699 97.7285 13.0597L99.5247 13.4688C99.8059 12.772 100.522 12.1009 101.807 12.1009C103.04 12.1009 103.673 12.7464 103.673 13.8587V13.9034C103.673 14.6001 102.957 14.5874 101.193 14.7919C99.3329 15.0092 97.4281 15.495 97.4281 17.7259C97.4281 19.6562 98.8791 20.7173 100.746 20.7173ZM101.161 19.1832C100.081 19.1832 99.301 18.6974 99.301 17.7514C99.301 16.7287 100.209 16.3643 101.314 16.2173C101.934 16.1342 103.405 15.968 103.68 15.6932V16.9588C103.68 18.1222 102.753 19.1832 101.161 19.1832ZM112.719 10.6818H110.706V8.32955H108.795V10.6818H107.357V12.2159H108.795V18.0135C108.788 19.7969 110.15 20.6598 111.658 20.6278C112.266 20.6214 112.675 20.5064 112.898 20.4233L112.553 18.8445C112.425 18.87 112.189 18.9276 111.882 18.9276C111.262 18.9276 110.706 18.723 110.706 17.6172V12.2159H112.719V10.6818ZM126.891 10.848H128.795C128.738 8.75142 126.884 7.23011 124.225 7.23011C121.598 7.23011 119.585 8.73224 119.585 10.9886C119.585 12.8104 120.888 13.8778 122.991 14.4467L124.538 14.8686C125.938 15.2393 127.018 15.6996 127.018 16.8629C127.018 18.1413 125.798 18.9851 124.116 18.9851C122.595 18.9851 121.33 18.3075 121.214 16.8821H119.233C119.361 19.2536 121.195 20.7173 124.129 20.7173C127.204 20.7173 128.974 19.1001 128.974 16.8821C128.974 14.5234 126.871 13.6094 125.21 13.2003L123.931 12.8679C122.908 12.6058 121.547 12.1264 121.553 10.8736C121.553 9.76136 122.57 8.93679 124.18 8.93679C125.683 8.93679 126.75 9.63991 126.891 10.848ZM137.401 16.4283C137.407 18.0966 136.167 18.8892 135.093 18.8892C133.911 18.8892 133.093 18.0327 133.093 16.6967V10.6818H131.181V16.9268C131.181 19.3622 132.517 20.6278 134.403 20.6278C135.879 20.6278 136.883 19.848 137.337 18.7997H137.439V20.5H139.318V10.6818H137.401V16.4283ZM141.886 24.1818H143.798V18.9723H143.913C144.258 19.5987 144.961 20.6918 146.751 20.6918C149.129 20.6918 150.854 18.7869 150.854 15.6101C150.854 12.4268 149.103 10.554 146.732 10.554C144.91 10.554 144.251 11.6662 143.913 12.2734H143.753V10.6818H141.886V24.1818ZM143.759 15.5909C143.759 13.5391 144.654 12.1776 146.322 12.1776C148.055 12.1776 148.924 13.6413 148.924 15.5909C148.924 17.5597 148.029 19.0618 146.322 19.0618C144.68 19.0618 143.759 17.6555 143.759 15.5909ZM152.996 24.1818H154.907V18.9723H155.022C155.367 19.5987 156.07 20.6918 157.86 20.6918C160.238 20.6918 161.964 18.7869 161.964 15.6101C161.964 12.4268 160.212 10.554 157.841 10.554C156.019 10.554 155.361 11.6662 155.022 12.2734H154.862V10.6818H152.996V24.1818ZM154.869 15.5909C154.869 13.5391 155.763 12.1776 157.432 12.1776C159.164 12.1776 160.033 13.6413 160.033 15.5909C160.033 17.5597 159.138 19.0618 157.432 19.0618C155.789 19.0618 154.869 17.6555 154.869 15.5909ZM168.241 20.6982C171.009 20.6982 172.817 18.6719 172.817 15.6357C172.817 12.5803 171.009 10.554 168.241 10.554C165.473 10.554 163.664 12.5803 163.664 15.6357C163.664 18.6719 165.473 20.6982 168.241 20.6982ZM168.247 19.0938C166.438 19.0938 165.594 17.5149 165.594 15.6293C165.594 13.75 166.438 12.152 168.247 12.152C170.043 12.152 170.887 13.75 170.887 15.6293C170.887 17.5149 170.043 19.0938 168.247 19.0938ZM174.951 20.5H176.862V14.5043C176.862 13.2195 177.853 12.2926 179.208 12.2926C179.604 12.2926 180.052 12.3629 180.205 12.4077V10.5795C180.013 10.554 179.636 10.5348 179.393 10.5348C178.243 10.5348 177.258 11.1868 176.9 12.2415H176.798V10.6818H174.951V20.5ZM187.022 10.6818H185.009V8.32955H183.097V10.6818H181.659V12.2159H183.097V18.0135C183.091 19.7969 184.453 20.6598 185.961 20.6278C186.568 20.6214 186.977 20.5064 187.201 20.4233L186.856 18.8445C186.728 18.87 186.492 18.9276 186.185 18.9276C185.565 18.9276 185.009 18.723 185.009 17.6172V12.2159H187.022V10.6818ZM193.874 20.5H202.491V18.8061H196.597V18.7102L199.199 15.9872C201.596 13.5646 202.28 12.4077 202.28 10.9439C202.28 8.84091 200.567 7.23011 198.1 7.23011C195.651 7.23011 193.862 8.81534 193.862 11.206H195.747C195.741 9.79972 196.649 8.87926 198.061 8.87926C199.391 8.87926 200.401 9.69744 200.401 11.0014C200.401 12.1584 199.71 12.9893 198.304 14.4787L193.874 19.0682V20.5ZM204.357 17.9432H210.564V20.5H212.45V17.9432H214.182V16.2685H212.45V7.40909H210.014L204.357 16.3452V17.9432ZM210.577 16.2685H206.428V16.1662L210.475 9.76136H210.577V16.2685ZM221.421 6.79545H219.714L215.496 22.4688H217.202L221.421 6.79545ZM223.46 20.5H225.525L231.22 9.16051V7.40909H222.565V9.10298H229.175V9.19886L223.46 20.5Z" fill="#272343"/>
<path d="M69.3026 43.5H70.6662L73.0739 34.8068H73.1591L75.5668 43.5H76.9304L79.9134 32.5909H78.571L76.2912 41.4759H76.1847L73.8622 32.5909H72.3707L70.0483 41.4759H69.9418L67.6619 32.5909H66.3196L69.3026 43.5ZM84.0575 43.6705C85.7195 43.6705 86.9339 42.8395 87.3175 41.6037L86.103 41.2628C85.7834 42.1151 85.043 42.5412 84.0575 42.5412C82.582 42.5412 81.5646 41.5877 81.506 39.8352H87.4453V39.3026C87.4453 36.2557 85.6342 35.2116 83.9297 35.2116C81.7138 35.2116 80.2436 36.9588 80.2436 39.473C80.2436 41.9872 81.6925 43.6705 84.0575 43.6705ZM81.506 38.7486C81.5913 37.4755 82.4915 36.3409 83.9297 36.3409C85.2933 36.3409 86.1669 37.3636 86.1669 38.7486H81.506ZM96.9002 43.6705C98.7113 43.6705 99.9045 42.5625 100.118 41.1136H98.8604C98.6261 42.0085 97.8803 42.5412 96.9002 42.5412C95.4087 42.5412 94.4499 41.3054 94.4499 39.4091C94.4499 37.5554 95.43 36.3409 96.9002 36.3409C98.0082 36.3409 98.6687 37.0227 98.8604 37.7685H100.118C99.9045 36.2344 98.6048 35.2116 96.8789 35.2116C94.663 35.2116 93.1928 36.9588 93.1928 39.4517C93.1928 41.902 94.5991 43.6705 96.9002 43.6705ZM104.363 43.6918C105.79 43.6918 106.536 42.9247 106.792 42.392H106.856V43.5H108.113V38.1094C108.113 35.5099 106.131 35.2116 105.087 35.2116C103.852 35.2116 102.445 35.6378 101.806 37.1293L102.999 37.5554C103.276 36.9588 103.931 36.3196 105.13 36.3196C106.286 36.3196 106.856 36.9322 106.856 37.9815V38.0241C106.856 38.6314 106.238 38.5781 104.746 38.7699C103.228 38.967 101.572 39.3026 101.572 41.1776C101.572 42.7756 102.808 43.6918 104.363 43.6918ZM104.555 42.5625C103.553 42.5625 102.829 42.1151 102.829 41.2415C102.829 40.2827 103.702 39.9844 104.683 39.8565C105.215 39.7926 106.643 39.6435 106.856 39.3878V40.5384C106.856 41.5611 106.046 42.5625 104.555 42.5625ZM110.407 43.5H111.665V38.3224C111.665 37.2145 112.538 36.4048 113.731 36.4048C114.067 36.4048 114.413 36.4688 114.498 36.4901V35.2116C114.354 35.201 114.024 35.1903 113.838 35.1903C112.858 35.1903 112.005 35.7443 111.707 36.554H111.622V35.3182H110.407V43.5ZM119.17 43.6705C120.832 43.6705 122.046 42.8395 122.43 41.6037L121.215 41.2628C120.896 42.1151 120.155 42.5412 119.17 42.5412C117.694 42.5412 116.677 41.5877 116.618 39.8352H122.558V39.3026C122.558 36.2557 120.747 35.2116 119.042 35.2116C116.826 35.2116 115.356 36.9588 115.356 39.473C115.356 41.9872 116.805 43.6705 119.17 43.6705ZM116.618 38.7486C116.704 37.4755 117.604 36.3409 119.042 36.3409C120.406 36.3409 121.279 37.3636 121.279 38.7486H116.618ZM129.498 46.5682C130.633 46.5682 131.432 45.9663 131.906 44.6932L135.39 35.3395L134.015 35.3182L131.757 41.8381H131.672L129.413 35.3182H128.049L131.075 43.5426L130.841 44.1818C130.383 45.4283 129.818 45.5455 128.902 45.3111L128.582 46.419C128.71 46.483 129.072 46.5682 129.498 46.5682ZM140.084 43.6705C142.3 43.6705 143.791 41.9872 143.791 39.4517C143.791 36.8949 142.3 35.2116 140.084 35.2116C137.868 35.2116 136.376 36.8949 136.376 39.4517C136.376 41.9872 137.868 43.6705 140.084 43.6705ZM140.084 42.5412C138.401 42.5412 137.634 41.0923 137.634 39.4517C137.634 37.8111 138.401 36.3409 140.084 36.3409C141.767 36.3409 142.534 37.8111 142.534 39.4517C142.534 41.0923 141.767 42.5412 140.084 42.5412ZM150.866 40.1548C150.866 41.6889 149.695 42.392 148.757 42.392C147.713 42.392 146.967 41.625 146.967 40.4318V35.3182H145.71V40.517C145.71 42.6051 146.818 43.6065 148.352 43.6065C149.588 43.6065 150.398 42.946 150.781 42.1151H150.866V43.5H152.123V35.3182H150.866V40.1548ZM154.426 43.5H155.683V38.3224C155.683 37.2145 156.557 36.4048 157.75 36.4048C158.085 36.4048 158.432 36.4688 158.517 36.4901V35.2116C158.373 35.201 158.043 35.1903 157.856 35.1903C156.876 35.1903 156.024 35.7443 155.726 36.554H155.64V35.3182H154.426V43.5ZM167.656 43.6705C169.318 43.6705 170.533 42.8395 170.916 41.6037L169.702 41.2628C169.382 42.1151 168.642 42.5412 167.656 42.5412C166.181 42.5412 165.163 41.5877 165.105 39.8352H171.044V39.3026C171.044 36.2557 169.233 35.2116 167.528 35.2116C165.312 35.2116 163.842 36.9588 163.842 39.473C163.842 41.9872 165.291 43.6705 167.656 43.6705ZM165.105 38.7486C165.19 37.4755 166.09 36.3409 167.528 36.3409C168.892 36.3409 169.766 37.3636 169.766 38.7486H165.105ZM173.674 35.3182H172.225L174.825 39.4091L172.225 43.5H173.674L175.634 40.3253L177.594 43.5H179.043L176.401 39.4091L179.043 35.3182H177.594L175.634 38.6634L173.674 35.3182ZM180.837 46.5682H182.094V42.2429H182.201C182.478 42.6903 183.01 43.6705 184.587 43.6705C186.633 43.6705 188.06 42.0298 188.06 39.4304C188.06 36.8523 186.633 35.2116 184.566 35.2116C182.968 35.2116 182.478 36.1918 182.201 36.6179H182.052V35.3182H180.837V46.5682ZM182.073 39.4091C182.073 37.5767 182.883 36.3409 184.417 36.3409C186.015 36.3409 186.803 37.6832 186.803 39.4091C186.803 41.1562 185.993 42.5412 184.417 42.5412C182.904 42.5412 182.073 41.2628 182.073 39.4091ZM193.408 43.6705C195.07 43.6705 196.285 42.8395 196.668 41.6037L195.454 41.2628C195.134 42.1151 194.394 42.5412 193.408 42.5412C191.933 42.5412 190.915 41.5877 190.857 39.8352H196.796V39.3026C196.796 36.2557 194.985 35.2116 193.28 35.2116C191.064 35.2116 189.594 36.9588 189.594 39.473C189.594 41.9872 191.043 43.6705 193.408 43.6705ZM190.857 38.7486C190.942 37.4755 191.842 36.3409 193.28 36.3409C194.644 36.3409 195.517 37.3636 195.517 38.7486H190.857ZM198.708 43.5H199.965V38.3224C199.965 37.2145 200.839 36.4048 202.032 36.4048C202.368 36.4048 202.714 36.4688 202.799 36.4901V35.2116C202.655 35.201 202.325 35.1903 202.139 35.1903C201.158 35.1903 200.306 35.7443 200.008 36.554H199.923V35.3182H198.708V43.5ZM204.289 43.5H205.546V35.3182H204.289V43.5ZM204.928 33.9545C205.419 33.9545 205.823 33.571 205.823 33.1023C205.823 32.6335 205.419 32.25 204.928 32.25C204.438 32.25 204.034 32.6335 204.034 33.1023C204.034 33.571 204.438 33.9545 204.928 33.9545ZM211.279 43.6705C212.941 43.6705 214.156 42.8395 214.539 41.6037L213.325 41.2628C213.005 42.1151 212.265 42.5412 211.279 42.5412C209.804 42.5412 208.786 41.5877 208.728 39.8352H214.667V39.3026C214.667 36.2557 212.856 35.2116 211.151 35.2116C208.935 35.2116 207.465 36.9588 207.465 39.473C207.465 41.9872 208.914 43.6705 211.279 43.6705ZM208.728 38.7486C208.813 37.4755 209.713 36.3409 211.151 36.3409C212.515 36.3409 213.389 37.3636 213.389 38.7486H208.728ZM217.836 38.5781C217.836 37.1506 218.721 36.3409 219.924 36.3409C221.091 36.3409 221.799 37.1026 221.799 38.3864V43.5H223.057V38.3011C223.057 36.2131 221.943 35.2116 220.287 35.2116C219.051 35.2116 218.284 35.7656 217.9 36.5966H217.794V35.3182H216.579V43.5H217.836V38.5781ZM228.678 43.6705C230.489 43.6705 231.682 42.5625 231.895 41.1136H230.638C230.403 42.0085 229.658 42.5412 228.678 42.5412C227.186 42.5412 226.227 41.3054 226.227 39.4091C226.227 37.5554 227.207 36.3409 228.678 36.3409C229.786 36.3409 230.446 37.0227 230.638 37.7685H231.895C231.682 36.2344 230.382 35.2116 228.656 35.2116C226.44 35.2116 224.97 36.9588 224.97 39.4517C224.97 41.902 226.376 43.6705 228.678 43.6705ZM237.163 43.6705C238.825 43.6705 240.039 42.8395 240.423 41.6037L239.208 41.2628C238.889 42.1151 238.148 42.5412 237.163 42.5412C235.688 42.5412 234.67 41.5877 234.612 39.8352H240.551V39.3026C240.551 36.2557 238.74 35.2116 237.035 35.2116C234.819 35.2116 233.349 36.9588 233.349 39.473C233.349 41.9872 234.798 43.6705 237.163 43.6705ZM234.612 38.7486C234.697 37.4755 235.597 36.3409 237.035 36.3409C238.399 36.3409 239.272 37.3636 239.272 38.7486H234.612ZM248.259 37.1506C247.864 35.9893 246.98 35.2116 245.361 35.2116C243.635 35.2116 242.357 36.1918 242.357 37.5767C242.357 38.706 243.028 39.4624 244.53 39.8139L245.893 40.1335C246.719 40.3253 247.108 40.7195 247.108 41.2841C247.108 41.9872 246.362 42.5625 245.19 42.5625C244.162 42.5625 243.518 42.1204 243.294 41.2415L242.101 41.5398C242.394 42.93 243.539 43.6705 245.212 43.6705C247.113 43.6705 248.408 42.6317 248.408 41.2202C248.408 40.0803 247.694 39.3612 246.234 39.0043L245.02 38.706C244.05 38.4663 243.614 38.1413 243.614 37.5128C243.614 36.8097 244.359 36.2983 245.361 36.2983C246.458 36.2983 246.911 36.9055 247.129 37.4702L248.259 37.1506Z" fill="#9A9CAA"/>
<defs>
<clipPath id="clip0_1_583">
<rect width="50" height="50" fill="white"/>
</clipPath>
</defs>
</svg>
