<svg width="248" height="43" viewBox="0 0 248 43" fill="none" xmlns="http://www.w3.org/2000/svg">
<path d="M13.9635 32.5869C12.894 32.5869 12.024 33.4569 12.024 34.5264C12.024 35.5959 12.894 36.4659 13.9635 36.4659C15.033 36.4659 15.903 35.5959 15.903 34.5264C15.903 33.4569 15.033 32.5869 13.9635 32.5869Z" fill="#272343"/>
<path d="M54.0446 32.5869C52.9751 32.5869 52.1051 33.4569 52.1051 34.5264C52.1051 35.5959 52.9751 36.4659 54.0446 36.4659C55.1141 36.4659 55.9841 35.5959 55.9841 34.5264C55.9841 33.4569 55.1141 32.5869 54.0446 32.5869Z" fill="#272343"/>
<path d="M61.9886 20.1537L54.7706 17.7477L51.397 8.4705C50.9759 7.31237 49.865 6.53425 48.6326 6.53425H39.9516V4.46562C39.9516 3.39612 39.0816 2.52612 38.0121 2.52612H1.9395C0.87 2.52612 0 3.39625 0 4.46575V31.5202C0 32.5897 0.87 33.4597 1.9395 33.4597H8.11375C8.05075 33.806 8.01612 34.1621 8.01612 34.5262C8.01612 37.8057 10.6842 40.4739 13.9637 40.4739C17.2432 40.4739 19.9114 37.8057 19.9114 34.5262C19.9114 34.162 19.8767 33.806 19.8137 33.4597H48.1946C48.1316 33.806 48.097 34.1621 48.097 34.5262C48.097 37.8057 50.7651 40.4739 54.0446 40.4739C57.3241 40.4739 59.9922 37.8057 59.9922 34.5262C59.9922 34.063 59.9372 33.6125 59.8366 33.1795L61.8205 32.1876C63.1647 31.5152 64 30.1636 64 28.6602V22.9444C64 21.6764 63.1917 20.5549 61.9886 20.1537ZM1.875 4.46575C1.875 4.43012 1.90387 4.40112 1.9395 4.40112H38.0121C38.0477 4.40112 38.0766 4.43 38.0766 4.46562V24.5705H1.875V4.46575ZM13.9636 38.5989C11.718 38.5989 9.891 36.7719 9.891 34.5262C9.891 32.2806 11.718 30.4536 13.9636 30.4536C16.2092 30.4536 18.0362 32.2806 18.0362 34.5262C18.0364 36.7719 16.2094 38.5989 13.9636 38.5989ZM38.0766 31.5846H19.1297C18.1044 29.791 16.1735 28.5786 13.9636 28.5786C11.7537 28.5786 9.823 29.791 8.79762 31.5846H1.9395C1.90387 31.5846 1.875 31.5557 1.875 31.5201V26.4455H38.0766V31.5846ZM50.8372 12.4174L52.706 17.5565H50.693L48.8242 12.4174H50.8372ZM39.9516 8.40925H48.6326C49.0795 8.40925 49.4823 8.69137 49.635 9.11125L50.1554 10.5422H39.9516V8.40925ZM39.9516 12.4174H46.8291L48.6979 17.5565H39.9516V12.4174ZM54.0444 38.5989C51.7988 38.5989 49.9717 36.7719 49.9717 34.5262C49.9717 32.2806 51.7988 30.4536 54.0444 30.4536C56.29 30.4536 58.117 32.2806 58.117 34.5262C58.117 36.7719 56.29 38.5989 54.0444 38.5989ZM62.125 24.5704H61.0585C60.5407 24.5704 60.121 24.9901 60.121 25.5079C60.121 26.0256 60.5407 26.4454 61.0585 26.4454H62.125V28.6601C62.125 29.4489 61.6869 30.1577 60.9816 30.5105L59.1258 31.4384C58.0808 29.725 56.194 28.5786 54.0444 28.5786C51.8345 28.5786 49.9038 29.791 48.8784 31.5846H39.9516V26.4455H57.0505C57.5682 26.4455 57.988 26.0257 57.988 25.508C57.988 24.9902 57.5682 24.5705 57.0505 24.5705H39.9516V19.4314H53.8923L61.3957 21.9325C61.832 22.0779 62.125 22.4845 62.125 22.9442V24.5704Z" fill="#272343"/>
<path d="M31.4632 13.6718L24.4491 9.66382C23.9997 9.40695 23.427 9.5632 23.17 10.0127C22.9131 10.4623 23.0692 11.0349 23.5189 11.2918L27.4679 13.5484H8.95374C8.43599 13.5484 8.01624 13.9682 8.01624 14.4859C8.01624 15.0037 8.43599 15.4233 8.95374 15.4233H27.4679L23.5189 17.6799C23.0694 17.9368 22.9131 18.5094 23.17 18.9591C23.343 19.2618 23.6594 19.4316 23.9849 19.4316C24.1426 19.4316 24.3025 19.3917 24.4491 19.3078L31.4632 15.2998C31.7552 15.1329 31.9356 14.8223 31.9356 14.4858C31.9356 14.1493 31.7554 13.8388 31.4632 13.6718Z" fill="#272343"/>
<path d="M81.4382 17H83.4134V11.2919H88.9744V9.59801H83.4134V5.60938H89.5561V3.90909H81.4382V17ZM91.7086 17H93.6199V11.0043C93.6199 9.71946 94.6106 8.79261 95.9657 8.79261C96.362 8.79261 96.8095 8.86293 96.9629 8.90767V7.07955C96.7711 7.05398 96.394 7.0348 96.1511 7.0348C95.0005 7.0348 94.0162 7.68679 93.6582 8.74148H93.5559V7.18182H91.7086V17ZM102.497 17.1982C104.638 17.1982 106.153 16.1435 106.588 14.5455L104.779 14.2195C104.434 15.1463 103.603 15.6193 102.516 15.6193C100.88 15.6193 99.7802 14.5582 99.729 12.6662H106.709V11.9886C106.709 8.44105 104.587 7.05398 102.363 7.05398C99.6268 7.05398 97.8242 9.13778 97.8242 12.1548C97.8242 15.2038 99.6012 17.1982 102.497 17.1982ZM99.7354 11.2344C99.8121 9.84091 100.822 8.63281 102.375 8.63281C103.858 8.63281 104.83 9.73224 104.836 11.2344H99.7354ZM113.061 17.1982C115.203 17.1982 116.718 16.1435 117.152 14.5455L115.343 14.2195C114.998 15.1463 114.167 15.6193 113.08 15.6193C111.444 15.6193 110.345 14.5582 110.294 12.6662H117.274V11.9886C117.274 8.44105 115.151 7.05398 112.927 7.05398C110.191 7.05398 108.389 9.13778 108.389 12.1548C108.389 15.2038 110.166 17.1982 113.061 17.1982ZM110.3 11.2344C110.377 9.84091 111.387 8.63281 112.94 8.63281C114.423 8.63281 115.394 9.73224 115.401 11.2344H110.3ZM128.549 17C132.538 17 134.845 14.5263 134.845 10.4354C134.845 6.36364 132.538 3.90909 128.683 3.90909H124.311V17H128.549ZM126.286 15.2741V5.63494H128.562C131.426 5.63494 132.902 7.34801 132.902 10.4354C132.902 13.5355 131.426 15.2741 128.441 15.2741H126.286ZM141.38 17.1982C143.521 17.1982 145.036 16.1435 145.471 14.5455L143.662 14.2195C143.316 15.1463 142.485 15.6193 141.399 15.6193C139.762 15.6193 138.663 14.5582 138.612 12.6662H145.592V11.9886C145.592 8.44105 143.47 7.05398 141.245 7.05398C138.51 7.05398 136.707 9.13778 136.707 12.1548C136.707 15.2038 138.484 17.1982 141.38 17.1982ZM138.618 11.2344C138.695 9.84091 139.705 8.63281 141.258 8.63281C142.741 8.63281 143.713 9.73224 143.719 11.2344H138.618ZM149.624 3.90909H147.713V17H149.624V3.90909ZM152.195 17H154.106V7.18182H152.195V17ZM153.16 5.6669C153.819 5.6669 154.368 5.15554 154.368 4.52912C154.368 3.9027 153.819 3.38494 153.16 3.38494C152.495 3.38494 151.952 3.9027 151.952 4.52912C151.952 5.15554 152.495 5.6669 153.16 5.6669ZM165.077 7.18182H163.025L160.545 14.7372H160.442L157.956 7.18182H155.904L159.471 17H161.516L165.077 7.18182ZM170.753 17.1982C172.894 17.1982 174.409 16.1435 174.844 14.5455L173.035 14.2195C172.689 15.1463 171.858 15.6193 170.772 15.6193C169.135 15.6193 168.036 14.5582 167.985 12.6662H174.965V11.9886C174.965 8.44105 172.843 7.05398 170.618 7.05398C167.883 7.05398 166.08 9.13778 166.08 12.1548C166.08 15.2038 167.857 17.1982 170.753 17.1982ZM167.991 11.2344C168.068 9.84091 169.078 8.63281 170.631 8.63281C172.114 8.63281 173.086 9.73224 173.092 11.2344H167.991ZM177.086 17H178.997V11.0043C178.997 9.71946 179.988 8.79261 181.343 8.79261C181.739 8.79261 182.186 8.86293 182.34 8.90767V7.07955C182.148 7.05398 181.771 7.0348 181.528 7.0348C180.377 7.0348 179.393 7.68679 179.035 8.74148H178.933V7.18182H177.086V17ZM185.501 20.6818C187.08 20.6818 188.077 19.8572 188.646 18.3104L192.705 7.20099L190.64 7.18182L188.153 14.8011H188.051L185.565 7.18182H183.519L187.112 17.1278L186.875 17.7798C186.389 19.0838 185.705 19.1925 184.657 18.9048L184.197 20.4709C184.427 20.5732 184.925 20.6818 185.501 20.6818Z" fill="#272343"/>
<path d="M84.9645 29.0909H83.6435L80.9162 30.902V32.2443L83.5795 30.4759H83.6435V40H84.9645V29.0909ZM91.6602 40.1491C94.0678 40.1491 95.4528 38.109 95.4528 34.5455C95.4528 31.0085 94.0465 28.9418 91.6602 28.9418C89.2738 28.9418 87.8675 31.0085 87.8675 34.5455C87.8675 38.109 89.2525 40.1491 91.6602 40.1491ZM91.6602 38.9773C90.0728 38.9773 89.146 37.3846 89.146 34.5455C89.146 31.7116 90.0835 30.0923 91.6602 30.0923C93.2369 30.0923 94.1744 31.7116 94.1744 34.5455C94.1744 37.3846 93.2475 38.9773 91.6602 38.9773ZM101.035 40.1491C103.443 40.1491 104.828 38.109 104.828 34.5455C104.828 31.0085 103.422 28.9418 101.035 28.9418C98.6488 28.9418 97.2425 31.0085 97.2425 34.5455C97.2425 38.109 98.6275 40.1491 101.035 40.1491ZM101.035 38.9773C99.4478 38.9773 98.521 37.3846 98.521 34.5455C98.521 31.7116 99.4585 30.0923 101.035 30.0923C102.612 30.0923 103.549 31.7116 103.549 34.5455C103.549 37.3846 102.623 38.9773 101.035 38.9773ZM112.413 37.9545C112.413 39.1477 113.159 40.1491 114.544 40.1491C115.907 40.1491 116.653 39.1477 116.653 37.9545V37.3793C116.653 36.1861 115.929 35.1847 114.544 35.1847C113.18 35.1847 112.413 36.1861 112.413 37.3793V37.9545ZM106.98 31.7116C106.98 32.9048 107.725 33.9062 109.11 33.9062C110.474 33.9062 111.22 32.9048 111.22 31.7116V31.1364C111.22 29.9432 110.495 28.9418 109.11 28.9418C107.747 28.9418 106.98 29.9432 106.98 31.1364V31.7116ZM107.385 40H108.599L116.099 29.0909H114.885L107.385 40ZM113.5 37.3793C113.5 36.7188 113.798 36.1009 114.544 36.1009C115.311 36.1009 115.566 36.7188 115.566 37.3793V37.9545C115.566 38.6151 115.289 39.233 114.544 39.233C113.777 39.233 113.5 38.6151 113.5 37.9545V37.3793ZM108.066 31.1364C108.066 30.4759 108.365 29.858 109.11 29.858C109.877 29.858 110.133 30.4759 110.133 31.1364V31.7116C110.133 32.3722 109.856 32.9901 109.11 32.9901C108.343 32.9901 108.066 32.3722 108.066 31.7116V31.1364ZM123.45 40H124.771V35.1207H129.501V33.9489H124.771V30.2628H129.991V29.0909H123.45V40ZM131.995 40H133.252V34.8224C133.252 33.7145 134.126 32.9048 135.319 32.9048C135.655 32.9048 136.001 32.9688 136.086 32.9901V31.7116C135.942 31.701 135.612 31.6903 135.426 31.6903C134.446 31.6903 133.593 32.2443 133.295 33.054H133.21V31.8182H131.995V40ZM140.758 40.1705C142.42 40.1705 143.634 39.3395 144.018 38.1037L142.803 37.7628C142.484 38.6151 141.743 39.0412 140.758 39.0412C139.282 39.0412 138.265 38.0877 138.206 36.3352H144.146V35.8026C144.146 32.7557 142.334 31.7116 140.63 31.7116C138.414 31.7116 136.944 33.4588 136.944 35.973C136.944 38.4872 138.393 40.1705 140.758 40.1705ZM138.206 35.2486C138.291 33.9755 139.192 32.8409 140.63 32.8409C141.994 32.8409 142.867 33.8636 142.867 35.2486H138.206ZM149.488 40.1705C151.15 40.1705 152.365 39.3395 152.748 38.1037L151.534 37.7628C151.214 38.6151 150.474 39.0412 149.488 39.0412C148.013 39.0412 146.995 38.0877 146.937 36.3352H152.876V35.8026C152.876 32.7557 151.065 31.7116 149.36 31.7116C147.144 31.7116 145.674 33.4588 145.674 35.973C145.674 38.4872 147.123 40.1705 149.488 40.1705ZM146.937 35.2486C147.022 33.9755 147.922 32.8409 149.36 32.8409C150.724 32.8409 151.598 33.8636 151.598 35.2486H146.937ZM162.65 31.8182H160.818V30.9872C160.818 30.1776 161.159 29.7514 161.99 29.7514C162.352 29.7514 162.565 29.8366 162.693 29.8793L163.055 28.7926C162.864 28.7074 162.48 28.5795 161.862 28.5795C160.69 28.5795 159.561 29.2827 159.561 30.6889V31.8182H158.24V32.8835H159.561V40H160.818V32.8835H162.65V31.8182ZM167.399 40.1705C169.615 40.1705 171.107 38.4872 171.107 35.9517C171.107 33.3949 169.615 31.7116 167.399 31.7116C165.183 31.7116 163.692 33.3949 163.692 35.9517C163.692 38.4872 165.183 40.1705 167.399 40.1705ZM167.399 39.0412C165.716 39.0412 164.949 37.5923 164.949 35.9517C164.949 34.3111 165.716 32.8409 167.399 32.8409C169.082 32.8409 169.85 34.3111 169.85 35.9517C169.85 37.5923 169.082 39.0412 167.399 39.0412ZM173.026 40H174.283V34.8224C174.283 33.7145 175.156 32.9048 176.349 32.9048C176.685 32.9048 177.031 32.9688 177.116 32.9901V31.7116C176.973 31.701 176.642 31.6903 176.456 31.6903C175.476 31.6903 174.624 32.2443 174.325 33.054H174.24V31.8182H173.026V40ZM185.233 40.1918C186.661 40.1918 187.406 39.4247 187.662 38.892H187.726V40H188.983V34.6094C188.983 32.0099 187.002 31.7116 185.957 31.7116C184.722 31.7116 183.315 32.1378 182.676 33.6293L183.869 34.0554C184.146 33.4588 184.802 32.8196 186 32.8196C187.156 32.8196 187.726 33.4322 187.726 34.4815V34.5241C187.726 35.1314 187.108 35.0781 185.617 35.2699C184.098 35.467 182.442 35.8026 182.442 37.6776C182.442 39.2756 183.678 40.1918 185.233 40.1918ZM185.425 39.0625C184.423 39.0625 183.699 38.6151 183.699 37.7415C183.699 36.7827 184.573 36.4844 185.553 36.3565C186.085 36.2926 187.513 36.1435 187.726 35.8878V37.0384C187.726 38.0611 186.916 39.0625 185.425 39.0625ZM192.535 29.0909H191.278V40H192.535V29.0909ZM196.094 29.0909H194.837V40H196.094V29.0909ZM205.939 40.1705C208.155 40.1705 209.647 38.4872 209.647 35.9517C209.647 33.3949 208.155 31.7116 205.939 31.7116C203.723 31.7116 202.232 33.3949 202.232 35.9517C202.232 38.4872 203.723 40.1705 205.939 40.1705ZM205.939 39.0412C204.256 39.0412 203.489 37.5923 203.489 35.9517C203.489 34.3111 204.256 32.8409 205.939 32.8409C207.623 32.8409 208.39 34.3111 208.39 35.9517C208.39 37.5923 207.623 39.0412 205.939 39.0412ZM211.566 40H212.823V34.8224C212.823 33.7145 213.696 32.9048 214.889 32.9048C215.225 32.9048 215.571 32.9688 215.657 32.9901V31.7116C215.513 31.701 215.182 31.6903 214.996 31.6903C214.016 31.6903 213.164 32.2443 212.865 33.054H212.78V31.8182H211.566V40ZM219.987 40.1705C221.564 40.1705 222.097 39.1903 222.373 38.7429H222.523V40H223.737V29.0909H222.48V33.1179H222.373C222.097 32.6918 221.606 31.7116 220.008 31.7116C217.942 31.7116 216.514 33.3523 216.514 35.9304C216.514 38.5298 217.942 40.1705 219.987 40.1705ZM220.158 39.0412C218.581 39.0412 217.771 37.6562 217.771 35.9091C217.771 34.1832 218.56 32.8409 220.158 32.8409C221.692 32.8409 222.501 34.0767 222.501 35.9091C222.501 37.7628 221.67 39.0412 220.158 39.0412ZM229.644 40.1705C231.306 40.1705 232.521 39.3395 232.904 38.1037L231.69 37.7628C231.37 38.6151 230.63 39.0412 229.644 39.0412C228.169 39.0412 227.152 38.0877 227.093 36.3352H233.032V35.8026C233.032 32.7557 231.221 31.7116 229.517 31.7116C227.301 31.7116 225.831 33.4588 225.831 35.973C225.831 38.4872 227.279 40.1705 229.644 40.1705ZM227.093 35.2486C227.178 33.9755 228.078 32.8409 229.517 32.8409C230.88 32.8409 231.754 33.8636 231.754 35.2486H227.093ZM234.945 40H236.202V34.8224C236.202 33.7145 237.075 32.9048 238.268 32.9048C238.604 32.9048 238.95 32.9688 239.035 32.9901V31.7116C238.892 31.701 238.561 31.6903 238.375 31.6903C237.395 31.6903 236.543 32.2443 236.244 33.054H236.159V31.8182H234.945V40ZM246.321 33.6506C245.927 32.4893 245.043 31.7116 243.423 31.7116C241.697 31.7116 240.419 32.6918 240.419 34.0767C240.419 35.206 241.09 35.9624 242.592 36.3139L243.956 36.6335C244.782 36.8253 245.17 37.2195 245.17 37.7841C245.17 38.4872 244.425 39.0625 243.253 39.0625C242.225 39.0625 241.58 38.6204 241.357 37.7415L240.163 38.0398C240.456 39.43 241.602 40.1705 243.274 40.1705C245.176 40.1705 246.47 39.1317 246.47 37.7202C246.47 36.5803 245.756 35.8612 244.297 35.5043L243.082 35.206C242.113 34.9663 241.676 34.6413 241.676 34.0128C241.676 33.3097 242.422 32.7983 243.423 32.7983C244.521 32.7983 244.973 33.4055 245.192 33.9702L246.321 33.6506Z" fill="#9A9CAA"/>
</svg>
